# Blender v2.78 (sub 0) OBJ File: 'gem-3-cut.blend'
# www.blender.org
mtllib gem-3-cut.mtl
o gem_Cylinder
v -0.000000 -1.500000 -6.000000
v -0.000000 1.500000 -6.000000
v 5.196152 -1.500000 3.000000
v 5.196152 1.500000 3.000000
v -5.196153 -1.500000 3.000000
v -5.196153 1.500000 3.000000
v -0.500000 0.000000 -9.133975
v 0.500000 0.000000 -9.133974
v 7.660254 0.000000 5.000000
v 8.160254 0.000000 4.133975
v -8.160254 0.000000 4.133974
v -7.660254 0.000000 4.999999
vn -0.5196 -0.8000 -0.3000
vn 0.0000 1.0000 -0.0000
vn -0.0000 -0.8000 0.6000
vn 0.0000 0.9020 -0.4317
vn 0.3739 -0.9020 0.2159
vn 0.3739 0.9020 0.2159
vn -0.3739 -0.9020 0.2159
vn -0.3739 0.9020 0.2159
vn 0.5196 -0.8000 -0.3000
vn 0.0000 -1.0000 0.0000
vn 0.5196 0.8000 -0.3000
vn -0.0000 0.8000 0.6000
vn -0.5196 0.8000 -0.3000
vn 0.0000 -0.9020 -0.4317
usemtl None
s off
f 1//1 5//1 11//1 7//1
f 4//2 2//2 6//2
f 5//3 3//3 9//3 12//3
f 7//4 2//4 8//4
f 9//5 3//5 10//5
f 4//6 9//6 10//6
f 11//7 5//7 12//7
f 6//8 11//8 12//8
f 3//9 1//9 8//9 10//9
f 1//10 3//10 5//10
f 2//11 4//11 10//11 8//11
f 4//12 6//12 12//12 9//12
f 6//13 2//13 7//13 11//13
f 1//14 7//14 8//14
